# xmcd
#
# Track frame offsets:
#	150
#	21032
#	35732
#	57484
#	79362
#	111765
#	127912
#	152435
#	178139
#	201384
#	218034
#
# Disc length: 3163 seconds
# Revision: 0
# Processed by: cddbd v1.5.2PL0 Copyright (c) Steve Scherf et al.
# Submitted via: dBpowerAMP V12.0
#
DISCID=980c590b
DTITLE=Levi Lowrey - Levi Lowrey
DYEAR=2014
DGENRE=Country
TTITLE0=Angels And Devils 
TTITLE1=The Problem With Freedom
TTITLE2=Freight Hopper
TTITLE3=I've Held The Devil's Hand
TTITLE4=Kiss My Ass
TTITLE5=Little Girl
TTITLE6=Something More
TTITLE7=Suzanne
TTITLE8=Wherever We Break Down 
TTITLE9=Whiskey And Wine
TTITLE10=All American
EXTD=
EXTT0=
EXTT1=
EXTT2=
EXTT3=
EXTT4=
EXTT5=
EXTT6=
EXTT7=
EXTT8=
EXTT9=
EXTT10=
PLAYORDER=
